<svg width="36" height="37" viewBox="0 0 36 37" fill="none" xmlns="http://www.w3.org/2000/svg">
<path d="M17.6584 24.05L24.7217 16.65H10.595L17.6584 24.05ZM17.6584 37C15.2156 37 12.92 36.5141 10.7716 35.5422C8.62317 34.5716 6.75433 33.2538 5.16507 31.5888C3.57582 29.9238 2.31796 27.9658 1.39148 25.715C0.463827 23.4642 0 21.0592 0 18.5C0 15.9408 0.463827 13.5358 1.39148 11.285C2.31796 9.03417 3.57582 7.07625 5.16507 5.41125C6.75433 3.74625 8.62317 2.42782 10.7716 1.45595C12.92 0.485317 15.2156 0 17.6584 0C20.1011 0 22.3967 0.485317 24.5451 1.45595C26.6936 2.42782 28.5624 3.74625 30.1517 5.41125C31.7409 7.07625 32.9988 9.03417 33.9253 11.285C34.8529 13.5358 35.3167 15.9408 35.3167 18.5C35.3167 21.0592 34.8529 23.4642 33.9253 25.715C32.9988 27.9658 31.7409 29.9238 30.1517 31.5888C28.5624 33.2538 26.6936 34.5716 24.5451 35.5422C22.3967 36.5141 20.1011 37 17.6584 37ZM17.6584 33.3C21.6021 33.3 24.9424 31.8662 27.6795 28.9987C30.4165 26.1312 31.7851 22.6317 31.7851 18.5C31.7851 14.3683 30.4165 10.8687 27.6795 8.00125C24.9424 5.13375 21.6021 3.7 17.6584 3.7C13.7147 3.7 10.3743 5.13375 7.63724 8.00125C4.9002 10.8687 3.53167 14.3683 3.53167 18.5C3.53167 22.6317 4.9002 26.1312 7.63724 28.9987C10.3743 31.8662 13.7147 33.3 17.6584 33.3Z" fill="white"/>
</svg>
