<svg width="30" height="28" viewBox="0 0 30 28" fill="none" xmlns="http://www.w3.org/2000/svg">
<path d="M8.59408 0.392212H20.7741C25.4141 0.392212 29.1841 3.97048 29.1841 8.37451V19.9351C29.1841 22.0521 28.298 24.0824 26.7209 25.5794C25.1437 27.0764 23.0046 27.9174 20.7741 27.9174H8.59408C3.95408 27.9174 0.184082 24.3391 0.184082 19.9351V8.37451C0.184082 6.25747 1.07013 4.22714 2.64731 2.73017C4.2245 1.2332 6.36361 0.392212 8.59408 0.392212ZM8.30408 3.14473C6.91965 3.14473 5.59192 3.66672 4.61299 4.59588C3.63405 5.52503 3.08408 6.78523 3.08408 8.09926V20.2103C3.08408 22.9491 5.41858 25.1649 8.30408 25.1649H21.0641C22.4485 25.1649 23.7762 24.6429 24.7552 23.7137C25.7341 22.7846 26.2841 21.5243 26.2841 20.2103V8.09926C26.2841 5.3605 23.9496 3.14473 21.0641 3.14473H8.30408ZM22.2966 5.20912C22.7773 5.20912 23.2383 5.39036 23.5782 5.71299C23.9181 6.03561 24.1091 6.47318 24.1091 6.92944C24.1091 7.3857 23.9181 7.82327 23.5782 8.14589C23.2383 8.46851 22.7773 8.64976 22.2966 8.64976C21.8159 8.64976 21.3549 8.46851 21.0149 8.14589C20.675 7.82327 20.4841 7.3857 20.4841 6.92944C20.4841 6.47318 20.675 6.03561 21.0149 5.71299C21.3549 5.39036 21.8159 5.20912 22.2966 5.20912ZM14.6841 7.2735C16.6069 7.2735 18.451 7.99849 19.8106 9.28899C21.1702 10.5795 21.9341 12.3298 21.9341 14.1548C21.9341 15.9798 21.1702 17.7301 19.8106 19.0206C18.451 20.3111 16.6069 21.0361 14.6841 21.0361C12.7613 21.0361 10.9172 20.3111 9.55756 19.0206C8.19792 17.7301 7.43408 15.9798 7.43408 14.1548C7.43408 12.3298 8.19792 10.5795 9.55756 9.28899C10.9172 7.99849 12.7613 7.2735 14.6841 7.2735ZM14.6841 10.026C13.5304 10.026 12.424 10.461 11.6082 11.2353C10.7924 12.0096 10.3341 13.0598 10.3341 14.1548C10.3341 15.2498 10.7924 16.3 11.6082 17.0743C12.424 17.8486 13.5304 18.2836 14.6841 18.2836C15.8378 18.2836 16.9442 17.8486 17.76 17.0743C18.5758 16.3 19.0341 15.2498 19.0341 14.1548C19.0341 13.0598 18.5758 12.0096 17.76 11.2353C16.9442 10.461 15.8378 10.026 14.6841 10.026Z" fill="white"/>
</svg>
