<svg width="31" height="24" viewBox="0 0 31 24" fill="none" xmlns="http://www.w3.org/2000/svg">
<path d="M30.834 2.99177C29.7175 3.47346 28.514 3.79 27.267 3.94139C28.543 3.21198 29.529 2.05592 29.993 0.665898C28.7895 1.35403 27.4555 1.83572 26.049 2.11097C24.9035 0.927387 23.294 0.239258 21.467 0.239258C18.0595 0.239258 15.2755 2.88167 15.2755 6.1434C15.2755 6.61133 15.3335 7.0655 15.435 7.49214C10.273 7.24441 5.6765 4.89101 2.617 1.3265C2.0805 2.19354 1.776 3.21198 1.776 4.28546C1.776 6.33608 2.8635 8.15274 4.5455 9.18493C3.516 9.18493 2.559 8.90968 1.718 8.49681V8.53809C1.718 11.4007 3.864 13.7954 6.706 14.3321C5.79355 14.5691 4.83564 14.6021 3.9075 14.4285C4.30133 15.6017 5.07263 16.6283 6.11297 17.3639C7.15332 18.0996 8.4104 18.5073 9.7075 18.5297C7.50876 20.1818 4.78329 21.0749 1.979 21.062C1.486 21.062 0.993 21.0345 0.5 20.9795C3.255 22.6585 6.532 23.6356 10.041 23.6356C21.467 23.6356 27.7455 14.6349 27.7455 6.83153C27.7455 6.57004 27.7455 6.32232 27.731 6.06083C28.949 5.23507 29.993 4.18912 30.834 2.99177Z" fill="white"/>
</svg>
