<svg width="36" height="37" viewBox="0 0 36 37" fill="none" xmlns="http://www.w3.org/2000/svg">
<path d="M17.6585 12.95L10.5952 20.35L24.7219 20.35L17.6585 12.95ZM17.6585 0C20.1013 0 22.3969 0.485931 24.5453 1.4578C26.6937 2.42843 28.5626 3.74625 30.1518 5.41125C31.7411 7.07625 32.9989 9.03417 33.9254 11.285C34.8531 13.5358 35.3169 15.9408 35.3169 18.5C35.3169 21.0592 34.8531 23.4642 33.9254 25.715C32.9989 27.9658 31.7411 29.9237 30.1518 31.5887C28.5626 33.2537 26.6937 34.5722 24.5453 35.5441C22.3969 36.5147 20.1013 37 17.6585 37C15.2158 37 12.9202 36.5147 10.7718 35.5441C8.62333 34.5722 6.75448 33.2537 5.16523 31.5887C3.57597 29.9237 2.31811 27.9658 1.39164 25.715C0.463982 23.4642 0.000156403 21.0592 0.000156403 18.5C0.000156403 15.9408 0.463982 13.5358 1.39164 11.285C2.31811 9.03417 3.57597 7.07625 5.16523 5.41125C6.75448 3.74625 8.62333 2.42843 10.7718 1.4578C12.9202 0.485931 15.2158 0 17.6585 0ZM17.6585 3.7C13.7148 3.7 10.3744 5.13375 7.6374 8.00125C4.90035 10.8688 3.53183 14.3683 3.53183 18.5C3.53183 22.6317 4.90035 26.1313 7.6374 28.9988C10.3744 31.8663 13.7148 33.3 17.6585 33.3C21.6022 33.3 24.9426 31.8663 27.6796 28.9988C30.4167 26.1313 31.7852 22.6317 31.7852 18.5C31.7852 14.3683 30.4167 10.8688 27.6796 8.00125C24.9426 5.13375 21.6022 3.7 17.6585 3.7Z" fill="white"/>
</svg>
