<svg width="35" height="23" viewBox="0 0 35 23" fill="none" xmlns="http://www.w3.org/2000/svg">
<path d="M33.4804 3.6771C33.2906 3.01204 32.919 2.40567 32.4027 1.91867C31.8865 1.43167 31.2436 1.08112 30.5386 0.902109C27.9422 0.239258 17.509 0.239258 17.509 0.239258C17.509 0.239258 7.07576 0.239258 4.47936 0.902109C3.77433 1.08112 3.13151 1.43167 2.61524 1.91867C2.09897 2.40567 1.72735 3.01204 1.53757 3.6771C1.05277 6.17488 0.817507 8.71007 0.834881 11.2493C0.817507 13.7886 1.05277 16.3238 1.53757 18.8216C1.72735 19.4866 2.09897 20.093 2.61524 20.58C3.13151 21.067 3.77433 21.4175 4.47936 21.5965C7.07576 22.2594 17.509 22.2594 17.509 22.2594C17.509 22.2594 27.9422 22.2594 30.5386 21.5965C31.2436 21.4175 31.8865 21.067 32.4027 20.58C32.919 20.093 33.2906 19.4866 33.4804 18.8216C33.9652 16.3238 34.2005 13.7886 34.1831 11.2493C34.2005 8.71007 33.9652 6.17488 33.4804 3.6771ZM14.1742 15.9679V6.53072L22.8328 11.2493L14.1742 15.9679Z" fill="white"/>
</svg>
